<?xml version="1.0" encoding="UTF-8"?>
<svg version="1.1" xmlns="http://www.w3.org/2000/svg" width="720" height="176">
<path d="M0 0 C0.90425047 2.4727343 1.14783226 3.61915593 0.1796875 6.11328125 C-0.25085938 6.83902344 -0.68140625 7.56476562 -1.125 8.3125 C-1.58003906 9.10269531 -2.03507812 9.89289062 -2.50390625 10.70703125 C-3.88747068 12.82753339 -5.39574162 14.60334391 -7.0625 16.5 C-8.39672415 18.1101963 -8.39672415 18.1101963 -9 20 C-8.20671099 23.29871258 -6.62912462 26.04510501 -5 29 C-1.97479111 39.08402962 -4.50658622 50.57793921 -9.1875 59.75 C-17.7289001 73.69257958 -32.86162313 80.49522119 -48 85 C-63.54242041 88.55054263 -79.96720229 86.94664545 -93.625 78.8125 C-104.38705805 71.48249798 -113.35748422 63.35313826 -116 50 C-116.37713735 45.92691665 -116.25249574 43.53655345 -114.5 39.8125 C-108.39544134 32.94487151 -100.03632739 31.86986377 -91.31640625 30.61328125 C-90.44886719 30.47277344 -89.58132812 30.33226563 -88.6875 30.1875 C-87.90761719 30.07792969 -87.12773438 29.96835938 -86.32421875 29.85546875 C-83.02209199 28.64006411 -81.3626406 26.58106654 -79 24 C-67.7306874 12.11599762 -57.94531143 5.28491003 -41.00927734 4.59619141 C-31.10369118 4.43510598 -23.39280569 6.79735491 -15 12 C-14.731875 11.29875 -14.46375 10.5975 -14.1875 9.875 C-10.54756846 1.06253417 -9.2471705 -0.14914791 0 0 Z M-69.12890625 26.2265625 C-69.78761719 26.91492188 -70.44632813 27.60328125 -71.125 28.3125 C-71.68445313 28.92738281 -72.24390625 29.54226562 -72.8203125 30.17578125 C-79.39402206 35.67743424 -86.45097917 36.82713342 -94.72851562 37.77734375 C-99.31118587 38.33771137 -99.31118587 38.33771137 -103.0390625 40.87109375 C-104.63477623 44.40631319 -104.06898424 47.4168126 -103 51 C-98.07985659 62.45290908 -90.17716144 70.69611224 -78.859375 76.00390625 C-65.51975526 81.27356519 -50.43082545 80.09140136 -37.28125 74.93359375 C-28.41714292 70.88867742 -22.52249873 65.1160143 -19 56 C-16.50245703 48.75712538 -14.99145574 38.78960555 -18.015625 31.578125 C-18.34046875 31.05734375 -18.6653125 30.5365625 -19 30 C-19.886875 30.103125 -20.77375 30.20625 -21.6875 30.3125 C-25 30 -25 30 -27.8125 27.875 C-30.17995652 24.76348571 -30.73114094 22.85364648 -31 19 C-29.68 18.01 -28.36 17.02 -27 16 C-42.82030226 5.60380137 -57.74771412 14.32329734 -69.12890625 26.2265625 Z " fill="#31132C" transform="translate(211,45)"/>
<path d="M0 0 C1.13888672 -0.07734375 1.13888672 -0.07734375 2.30078125 -0.15625 C6.00903051 0.86336682 7.76918619 3.34042431 9.6875 6.5 C11.03001002 9.55978552 12.03405166 12.67895984 13 15.875 C13.26361328 16.70644531 13.52722656 17.53789063 13.79882812 18.39453125 C14.44088874 20.42577755 15.06596194 22.46238036 15.6875 24.5 C16.43847435 22.70874151 17.18821462 20.91696564 17.9375 19.125 C18.39382813 18.03703125 18.85015625 16.9490625 19.3203125 15.828125 C20.86424444 12.06975353 22.29989063 8.27673712 23.6953125 4.4609375 C24.6875 2.5 24.6875 2.5 27.6875 0.5 C34.67492535 -0.28890286 34.67492535 -0.28890286 38.28149414 2.52099609 C41.30121318 6.25987095 41.39793422 9.1162484 41.31640625 13.72265625 C41.31881821 14.50515244 41.32123016 15.28764862 41.32371521 16.09385681 C41.32273889 17.74206632 41.30939628 19.39030948 41.28442383 21.03833008 C41.25005336 23.55858763 41.26378742 26.07534787 41.28320312 28.59570312 C41.27630572 30.20053572 41.26663428 31.8053593 41.25390625 33.41015625 C41.25886612 34.16128189 41.26382599 34.91240753 41.26893616 35.68629456 C41.19055203 39.17235716 40.93102538 41.16736184 38.84741211 44.01342773 C36.6875 45.5 36.6875 45.5 33.5625 45.375 C30.6875 44.5 30.6875 44.5 28.6875 42.5 C28.38074768 39.60032243 28.17576629 36.78216822 28.0625 33.875 C28.00449219 32.67230469 28.00449219 32.67230469 27.9453125 31.4453125 C27.85096069 29.46392444 27.76813785 27.48199355 27.6875 25.5 C27.30078125 26.69238281 26.9140625 27.88476562 26.515625 29.11328125 C25.99028416 30.67992268 25.46420368 32.24631623 24.9375 33.8125 C24.55851562 34.99102539 24.55851562 34.99102539 24.171875 36.19335938 C23.02452511 39.56369969 22.20004579 41.97949233 19.67578125 44.54296875 C16.63349266 46.00733163 14.83434881 45.57126768 11.6875 44.5 C8.95325255 40.70165109 7.52137096 36.58714035 6 32.1875 C5.77505859 31.54232422 5.55011719 30.89714844 5.31835938 30.23242188 C4.76976467 28.65667113 4.22793041 27.07856946 3.6875 25.5 C3.66171875 26.60859375 3.6359375 27.7171875 3.609375 28.859375 C3.55308344 30.32295547 3.49573633 31.78649562 3.4375 33.25 C3.41623047 34.34441406 3.41623047 34.34441406 3.39453125 35.4609375 C3.23410599 38.99029318 2.95296184 41.13933033 0.8359375 44.015625 C-1.3125 45.5 -1.3125 45.5 -4.4375 45.5 C-7.3125 44.5 -7.3125 44.5 -8.47338867 42.90209961 C-9.61662749 39.62938307 -9.61783542 36.4917684 -9.61328125 33.06640625 C-9.61756638 32.35145493 -9.6218515 31.6365036 -9.62626648 30.89988708 C-9.63199654 29.39119524 -9.6325198 27.88247577 -9.62817383 26.3737793 C-9.62501521 24.07357339 -9.64848258 21.77465629 -9.67382812 19.47460938 C-9.67610151 18.00520995 -9.67680443 16.53580708 -9.67578125 15.06640625 C-9.684991 14.38292618 -9.69420074 13.69944611 -9.70368958 12.99525452 C-9.63974933 6.34955222 -7.24144679 0.29209197 0 0 Z " fill="#000000" transform="translate(444.3125,59.5)"/>
<path d="M0 0 C3.49775323 1.07623176 5.26207909 3.67226284 7.1328125 6.65625 C8.44077507 9.52889073 9.42935601 12.46228639 10.3828125 15.46875 C11.64044471 20.44104299 11.64044471 20.44104299 14.1328125 24.65625 C14.32391602 24.07133789 14.51501953 23.48642578 14.71191406 22.88378906 C15.58986495 20.22035441 16.48610704 17.56342618 17.3828125 14.90625 C17.68316406 13.98585938 17.98351562 13.06546875 18.29296875 12.1171875 C21.28879225 3.32093976 21.28879225 3.32093976 25.1328125 0.65625 C30.55108173 -0.11778846 30.55108173 -0.11778846 33.1328125 0.65625 C36.71855906 3.45837448 38.00976274 4.91361969 38.76391602 9.46508789 C38.78997653 10.93613004 38.78775446 12.40786366 38.76171875 13.87890625 C38.76413071 14.66140244 38.76654266 15.44389862 38.76902771 16.25010681 C38.76805139 17.89831632 38.75470878 19.54655948 38.72973633 21.19458008 C38.69536586 23.71483763 38.70909992 26.23159787 38.72851562 28.75195312 C38.72161822 30.35678572 38.71194678 31.9616093 38.69921875 33.56640625 C38.70417862 34.31753189 38.70913849 35.06865753 38.71424866 35.84254456 C38.63588782 39.32757125 38.37792322 41.32196672 36.29272461 44.16577148 C34.1328125 45.65625 34.1328125 45.65625 31.0078125 45.59375 C28.1328125 44.65625 28.1328125 44.65625 26.1328125 41.65625 C25.83215096 38.90207682 25.62355951 36.22979853 25.5078125 33.46875 C25.44980469 32.34436523 25.44980469 32.34436523 25.390625 31.19726562 C25.29653034 29.35065801 25.21358931 27.5034881 25.1328125 25.65625 C24.74609375 26.84863281 24.359375 28.04101562 23.9609375 29.26953125 C23.43559666 30.83617268 22.90951618 32.40256623 22.3828125 33.96875 C22.00382812 35.14727539 22.00382812 35.14727539 21.6171875 36.34960938 C20.46983761 39.71994969 19.64535829 42.13574233 17.12109375 44.69921875 C14.07880516 46.16358163 12.27966131 45.72751768 9.1328125 44.65625 C6.39856505 40.85790109 4.96668346 36.74339035 3.4453125 32.34375 C3.22037109 31.69857422 2.99542969 31.05339844 2.76367188 30.38867188 C2.21507717 28.81292113 1.67324291 27.23481946 1.1328125 25.65625 C1.10703125 26.84863281 1.08125 28.04101562 1.0546875 29.26953125 C0.99840811 30.8359742 0.94106073 32.40237903 0.8828125 33.96875 C0.86154297 35.14727539 0.86154297 35.14727539 0.83984375 36.34960938 C0.59270727 42.15731654 0.59270727 42.15731654 -1.75390625 44.703125 C-3.8671875 45.65625 -3.8671875 45.65625 -6.4296875 45.59375 C-9.49639801 44.41424596 -10.24142208 43.50611094 -11.8671875 40.65625 C-12.15937687 38.09398808 -12.28829601 35.78182985 -12.265625 33.22265625 C-12.26849518 32.50770493 -12.27136536 31.7927536 -12.27432251 31.05613708 C-12.27635943 29.54742641 -12.27085551 28.03868911 -12.25830078 26.5300293 C-12.24226384 24.22969998 -12.25814814 21.93113371 -12.27734375 19.63085938 C-12.27536079 18.16145448 -12.27151601 16.69205067 -12.265625 15.22265625 C-12.27169769 14.53917618 -12.27777039 13.85569611 -12.2840271 13.15150452 C-12.22076071 8.82025004 -11.52314238 6.09417103 -8.8671875 2.65625 C-5.72262199 0.55987299 -3.70624074 0.29068555 0 0 Z " fill="#000000" transform="translate(252.8671875,59.34375)"/>
<path d="M0 0 C0.7425 0.28875 1.485 0.5775 2.25 0.875 C3.24 0.215 4.23 -0.445 5.25 -1.125 C8.3125 -0.9375 8.3125 -0.9375 11.25 -0.125 C14.37972397 4.56958596 13.58392446 9.52746835 13.56567383 15.05200195 C13.56253871 17.03797901 13.58676321 19.02393802 13.61132812 21.00976562 C13.61487064 27.98497451 13.43045998 33.60516719 10.25 39.875 C4.76566103 45.2222305 -0.22188733 45.16781619 -7.56640625 45.0859375 C-11.36979536 44.8339338 -13.79182661 44.34014449 -16.75 41.875 C-17.75 38.875 -17.75 38.875 -17.75 35.875 C-17.09 34.885 -16.43 33.895 -15.75 32.875 C-11.69554358 32.44367485 -10.20029042 32.57480639 -6.75 34.875 C-4.41800612 34.95405064 -2.08167378 34.96298769 0.25 34.875 C0.25 33.225 0.25 31.575 0.25 29.875 C-0.74 30.535 -1.73 31.195 -2.75 31.875 C-6.95925614 32.48195266 -10.68951362 32.31302698 -14.625 30.6875 C-18.77496559 27.14782346 -20.38015075 23.1005705 -20.98828125 17.796875 C-21.18549582 12.02575381 -20.32165452 7.52865574 -16.75 2.875 C-11.78927557 -1.48405241 -6.12085854 -2.50398759 0 0 Z M-5.75 7.875 C-7.80265729 10.14000115 -8.73393211 11.82456187 -8.78125 14.91796875 C-8.33139176 19.36729191 -8.33139176 19.36729191 -5.75 22.875 C-3.16645782 23.04187448 -3.16645782 23.04187448 -0.75 22.875 C1.58479983 19.22687527 1.63018947 16.13312212 1.25 11.875 C0.16213816 9.39364773 0.16213816 9.39364773 -1.75 7.875 C-3.07 7.875 -4.39 7.875 -5.75 7.875 Z " fill="#000000" transform="translate(575.75,72.125)"/>
<path d="M0 0 C2.4375 0.8125 2.4375 0.8125 5.4375 2.8125 C6.0975 2.1525 6.7575 1.4925 7.4375 0.8125 C13.89903846 1.27403846 13.89903846 1.27403846 16.4375 3.8125 C17.5203125 2.7915625 17.5203125 2.7915625 18.625 1.75 C21.4375 -0.1875 21.4375 -0.1875 24.0625 -0.1875 C26.97921104 1.04058886 27.80628914 2.12025223 29.4375 4.8125 C30.0818004 8.76783017 29.94697856 12.74767767 29.9375 16.75 C29.96585937 17.83474609 29.99421875 18.91949219 30.0234375 20.03710938 C30.04527819 28.92080938 30.04527819 28.92080938 27.0703125 32.06640625 C24.4375 33.8125 24.4375 33.8125 21.8125 33.8125 C19.27324657 32.74334066 18.14640561 31.94840584 16.4375 29.8125 C16.00512695 27.63598633 16.00512695 27.63598633 15.92578125 25.14453125 C15.87260742 23.80551758 15.87260742 23.80551758 15.81835938 22.43945312 C15.79580078 21.51068359 15.77324219 20.58191406 15.75 19.625 C15.71583984 18.68462891 15.68167969 17.74425781 15.64648438 16.77539062 C15.56401782 14.45454607 15.49486597 12.13407852 15.4375 9.8125 C14.12147477 10.43004259 12.80976444 11.05678742 11.5 11.6875 C10.76910156 12.03554687 10.03820312 12.38359375 9.28515625 12.7421875 C7.27417541 13.6809977 7.27417541 13.6809977 6.4375 15.8125 C6.23796939 19.35084282 6.11894896 22.88739289 6.01171875 26.4296875 C5.35745691 30.28404638 4.57921785 31.54886663 1.4375 33.8125 C-1.6875 33.75 -1.6875 33.75 -4.5625 32.8125 C-7.87747123 27.84004315 -6.93147153 22.15409223 -6.9375 16.3125 C-6.96199219 15.06339844 -6.98648437 13.81429687 -7.01171875 12.52734375 C-7.01558594 11.33238281 -7.01945312 10.13742188 -7.0234375 8.90625 C-7.03165527 7.80990234 -7.03987305 6.71355469 -7.04833984 5.58398438 C-6.5625 2.8125 -6.5625 2.8125 -4.69384766 0.91992188 C-2.5625 -0.1875 -2.5625 -0.1875 0 0 Z " fill="#000000" transform="translate(357.5625,71.1875)"/>
<path d="M0 0 C2.3125 0.9375 2.3125 0.9375 4.3125 2.9375 C4.9725 2.4425 5.6325 1.9475 6.3125 1.4375 C10.15454532 -0.48352266 13.09508042 -0.66987686 17.3125 -0.0625 C21.02310017 1.33928229 22.04973453 2.44329633 23.91796875 5.95703125 C25.74651029 10.44907278 25.82749602 14.76377362 25.8125 19.5625 C25.84085938 20.39523438 25.86921875 21.22796875 25.8984375 22.0859375 C25.91261408 26.53738327 25.73929593 28.38182016 22.9453125 32.01953125 C20.3125 33.9375 20.3125 33.9375 17.6875 34 C14.68751306 32.65790058 13.9166971 31.82685219 12.3125 28.9375 C11.80527441 25.86169891 11.71011158 22.80015223 11.625 19.6875 C11.57375977 18.42679688 11.57375977 18.42679688 11.52148438 17.140625 C11.43926432 15.07337796 11.37419843 13.00546126 11.3125 10.9375 C9.6625 11.2675 8.0125 11.5975 6.3125 11.9375 C6.29123047 13.69126953 6.29123047 13.69126953 6.26953125 15.48046875 C6.22261562 17.02868457 6.17436831 18.57686044 6.125 20.125 C6.11919922 20.89392578 6.11339844 21.66285156 6.10742188 22.45507812 C5.94193251 26.73941403 5.6580541 28.4963671 2.92578125 31.984375 C0.3125 33.9375 0.3125 33.9375 -2.3125 34 C-5.19162375 32.71197095 -6.05900034 31.62066625 -7.6875 28.9375 C-8.3318004 24.98216983 -8.19697856 21.00232233 -8.1875 17 C-8.21585938 15.91525391 -8.24421875 14.83050781 -8.2734375 13.71289062 C-8.29527833 4.82913253 -8.29527833 4.82913253 -5.32421875 1.6796875 C-2.6875 -0.0625 -2.6875 -0.0625 0 0 Z " fill="#000000" transform="translate(528.6875,71.0625)"/>
<path d="M0 0 C2.56692493 1.79684745 3.87439352 3.0935282 5.5 5.75 C5.88818359 8.35961914 5.88818359 8.35961914 5.8984375 11.28515625 C5.90423828 12.86973633 5.90423828 12.86973633 5.91015625 14.48632812 C5.89855469 15.58396484 5.88695312 16.68160156 5.875 17.8125 C5.88660156 18.91400391 5.89820313 20.01550781 5.91015625 21.15039062 C5.90628906 22.20548828 5.90242187 23.26058594 5.8984375 24.34765625 C5.89505371 25.31195557 5.89166992 26.27625488 5.88818359 27.26977539 C5.5 29.75 5.5 29.75 4.16650391 31.60327148 C2.5 32.75 2.5 32.75 -0.5625 32.5 C-3.5 31.75 -3.5 31.75 -5.5 30.75 C-6.83781859 31.40761969 -8.17055657 32.07560961 -9.5 32.75 C-13.29376145 33.40528607 -16.9527415 33.61351149 -20.3828125 31.69921875 C-22.54184522 29.93131514 -24.24512701 28.25974598 -25.5 25.75 C-25.8885634 21.63122799 -25.95820463 19.46100718 -23.6875 15.9375 C-21.5 13.75 -21.5 13.75 -18.5 11.75 C-18.995 11.37875 -19.49 11.0075 -20 10.625 C-22.09755514 8.00305607 -21.71743835 6.01157528 -21.5 2.75 C-14.68451236 -2.09656899 -7.93485032 -2.83387511 0 0 Z M-12.6875 9.75 C-13.285625 10.41 -13.88375 11.07 -14.5 11.75 C-11.53 11.75 -8.56 11.75 -5.5 11.75 C-6.16 10.43 -6.82 9.11 -7.5 7.75 C-10.62498166 7.4126154 -10.62498166 7.4126154 -12.6875 9.75 Z M-13.5 20.75 C-13.17 21.74 -12.84 22.73 -12.5 23.75 C-10.85 23.75 -9.2 23.75 -7.5 23.75 C-6.84 22.1 -6.18 20.45 -5.5 18.75 C-9.26687864 18.75 -10.41190305 18.98537317 -13.5 20.75 Z " fill="#000000" transform="translate(512.5,72.25)"/>
<path d="M0 0 C4.5841458 3.12555395 7.7590506 6.40990018 8.875 11.9375 C8.75 15.875 8.75 15.875 6.3125 18.875 C5.466875 19.535 4.62125 20.195 3.75 20.875 C4.08 21.535 4.41 22.195 4.75 22.875 C5.0625 25.8125 5.0625 25.8125 4.75 28.875 C1.1806458 32.4443542 -2.6056248 33.05762133 -7.5 33.1875 C-13.04398482 33.11426374 -15.90024731 32.33704806 -20.25 28.875 C-24.42964896 23.73081666 -24.88756208 19.31405188 -24.625 12.75 C-24.0489171 8.33336447 -23.13035362 6.33142435 -20.25 2.875 C-14.04374999 -1.81821389 -7.26048159 -2.51324363 0 0 Z M-10.25 7.875 C-10.91 9.195 -11.57 10.515 -12.25 11.875 C-9.28 11.875 -6.31 11.875 -3.25 11.875 C-3.91 10.555 -4.57 9.235 -5.25 7.875 C-6.9 7.875 -8.55 7.875 -10.25 7.875 Z M-12.25 19.875 C-11.92 20.865 -11.59 21.855 -11.25 22.875 C-8.44954954 23.73150653 -8.44954954 23.73150653 -5.25 23.875 C-2.85204619 22.06212805 -2.85204619 22.06212805 -1.25 19.875 C-4.88 19.875 -8.51 19.875 -12.25 19.875 Z " fill="#000000" transform="translate(318.25,72.125)"/>
<path d="M0 0 C3.73762056 2.60764225 6.64972919 5.48014428 8.5 9.75 C9.08576609 16.3886823 9.05414219 20.92726547 5.6875 26.875 C2.35697006 30.39662592 -0.87440481 32.64152464 -5.80078125 33.11328125 C-11.85906353 33.27248922 -15.61206464 33.1168563 -20.3125 28.875 C-24.87982305 23.8139123 -25.61984392 20.00776172 -25.5234375 13.375 C-25.10026241 8.35959158 -22.99404014 5.28613714 -19.3125 2.0625 C-13.515012 -2.164835 -6.69222956 -2.27283268 0 0 Z M-11.4375 9.375 C-13.72918307 12.43057742 -13.89867455 14.22845065 -13.703125 17.96484375 C-13.392141 20.11334592 -13.392141 20.11334592 -11.5625 22.4375 C-9.45872386 24.05267941 -9.45872386 24.05267941 -7.1875 23.9375 C-5.13908058 22.9753657 -5.13908058 22.9753657 -4 20.75 C-3.12720184 17.10011679 -3.43691716 14.51203639 -4.3125 10.875 C-5.60514699 8.91068595 -5.60514699 8.91068595 -7.3125 7.875 C-9.47369096 7.68277227 -9.47369096 7.68277227 -11.4375 9.375 Z " fill="#000000" transform="translate(616.3125,72.125)"/>
<path d="M0 0 C1.83383884 1.20635664 3.44310619 2.57591869 4.99609375 4.12890625 C5.30859375 7.00390625 5.30859375 7.00390625 4.99609375 10.12890625 C3.37109375 12.12890625 3.37109375 12.12890625 0.99609375 13.12890625 C-2.25390625 12.31640625 -2.25390625 12.31640625 -5.00390625 11.12890625 C-5.00390625 10.46890625 -5.00390625 9.80890625 -5.00390625 9.12890625 C-6.98390625 9.12890625 -8.96390625 9.12890625 -11.00390625 9.12890625 C-11.00390625 13.74890625 -11.00390625 18.36890625 -11.00390625 23.12890625 C-9.02390625 23.12890625 -7.04390625 23.12890625 -5.00390625 23.12890625 C-4.67390625 22.13890625 -4.34390625 21.14890625 -4.00390625 20.12890625 C-0.53890625 19.63390625 -0.53890625 19.63390625 2.99609375 19.12890625 C5.08099002 21.38059422 5.99609375 22.5062705 5.99609375 25.62890625 C4.45812013 29.4738403 1.62629328 31.31380649 -2.00390625 33.12890625 C-7.64055586 33.64363024 -12.45874997 33.91503839 -17.56640625 31.31640625 C-18.37078125 30.59453125 -19.17515625 29.87265625 -20.00390625 29.12890625 C-20.58140625 28.69578125 -21.15890625 28.26265625 -21.75390625 27.81640625 C-25.42134434 22.86536483 -25.31699125 17.34706552 -24.53515625 11.4921875 C-23.39896948 6.43782722 -20.94783218 3.86093044 -16.94140625 0.75390625 C-11.85317424 -1.85600586 -5.28097539 -2.29562868 0 0 Z " fill="#000000" transform="translate(413.00390625,71.87109375)"/>
<path d="M0 0 C2 2 2 2 2.125 5.125 C2.08375 6.07375 2.0425 7.0225 2 8 C2.78375 7.95875 3.5675 7.9175 4.375 7.875 C7 8 7 8 9 10 C8.625 13.125 8.625 13.125 8 16 C6.35 16.33 4.7 16.66 3 17 C3 21.62 3 26.24 3 31 C4.65 31.33 6.3 31.66 8 32 C9 33 9 33 9.1875 35.9375 C9 39 9 39 7 41 C2.46668235 41.61781497 -1.73979004 41.49883311 -6 39.8125 C-9.43690003 36.69780935 -9.95153349 33.6882244 -10.2734375 29.1171875 C-10.33711777 26.97991856 -10.37521479 24.8451973 -10.390625 22.70703125 C-10.50613027 18.36827606 -10.50613027 18.36827606 -13.0390625 15.0078125 C-13.68617188 14.67523438 -14.33328125 14.34265625 -15 14 C-14.67 12.35 -14.34 10.7 -14 9 C-12.35 8.67 -10.7 8.34 -9 8 C-9.0825 7.071875 -9.165 6.14375 -9.25 5.1875 C-9 2 -9 2 -7.3125 0.0625 C-4.38550346 -1.28233625 -3.01415011 -1.03115662 0 0 Z " fill="#000000" transform="translate(340,64)"/>
<path d="M0 0 C0.7940625 -0.01675781 1.588125 -0.03351562 2.40625 -0.05078125 C3.0971875 0.06910156 3.788125 0.18898437 4.5 0.3125 C6.5 3.3125 6.5 3.3125 6.1875 6.4375 C5.5 9.3125 5.5 9.3125 4.5 10.3125 C2.50390625 10.48046875 2.50390625 10.48046875 0.0625 10.5 C-1.14212891 10.52126953 -1.14212891 10.52126953 -2.37109375 10.54296875 C-4.5 10.3125 -4.5 10.3125 -6.5 8.3125 C-6.75 5.3125 -6.75 5.3125 -6.5 2.3125 C-4.07477793 -0.11272207 -3.3279321 0.01620746 0 0 Z " fill="#000000" transform="translate(380.5,58.6875)"/>
</svg>
